<svg width="308" height="232" viewBox="0 0 308 232" fill="none" xmlns="http://www.w3.org/2000/svg">
<path d="M76.0652 231.944L72.1276 217.249L98.9587 210.062L104.823 231.947H118.74L118.206 229.955L241.988 196.788L251.409 231.947H265.322L259.843 211.48L286.674 204.294L294.086 231.944H308L245.848 0H231.935L235.187 12.1325L208.352 19.3219L203.177 0H189.263L190.964 6.3517L67.1785 39.5189L56.5913 0H42.6777L47.4717 17.8977L20.6407 25.0872L13.9166 0.00310419H0L62.1486 231.947H76.0652V231.944ZM67.9542 201.669L60.2993 173.103L87.1334 165.917L94.7852 194.479L67.9542 201.669ZM282.5 188.714L255.672 195.9L248.014 167.335L274.848 160.142L282.5 188.714ZM270.675 144.572L243.844 151.758L236.189 123.189L263.02 116.003L270.675 144.572ZM258.843 100.423L232.015 107.613L224.357 79.0472L251.192 71.8577L258.843 100.423ZM239.363 27.7092L247.015 56.2748L220.184 63.4642L212.529 34.8987L239.363 27.7092ZM200.238 40.9773L232.71 162.162L108.928 195.323L76.4562 74.1445L200.238 40.9773ZM24.8141 40.667L51.6452 33.4775L59.3001 62.0431L32.466 69.2326L24.8141 40.667ZM36.6394 84.8124L63.4736 77.6229L71.1285 106.192L44.2974 113.381L36.6394 84.8124ZM48.4709 128.961L75.3019 121.768L82.9569 150.337L56.1227 157.523L48.4709 128.961Z" fill="#383838"/>
</svg>
