<svg width="70" height="46" viewBox="0 0 70 46" fill="none" xmlns="http://www.w3.org/2000/svg">
<path d="M35.0011 35.0011C54.3302 35.0011 70 27.1648 70 17.5019C70 7.83629 54.3302 0 35.0011 0C15.6698 0 0 7.83629 0 17.5019C0 27.1655 15.6698 35.0011 35.0011 35.0011ZM35.0011 18.168C36.9875 18.168 38.671 17.5447 39.3406 16.671C39.5404 16.9284 39.661 17.2081 39.661 17.5026C39.661 18.7886 37.5729 19.8298 35.0011 19.8298C32.4264 19.8298 30.3411 18.7886 30.3411 17.5026C30.3411 17.2081 30.4617 16.9291 30.6615 16.671C31.3311 17.5447 33.0146 18.168 35.0011 18.168ZM32.0288 27.2938C31.0345 25.4385 27.1388 24.0516 22.462 24.0516C17.8196 24.0516 13.9519 25.4217 12.9233 27.2552C12.7494 26.8885 12.633 26.5106 12.633 26.1172C12.633 23.396 17.0455 21.1915 22.4901 21.1915C27.9318 21.1915 32.3422 23.3967 32.3422 26.1172C32.3422 26.5253 32.216 26.9159 32.0288 27.2938ZM56.3938 27.2938C55.3995 25.4385 51.5038 24.0516 46.827 24.0516C42.1838 24.0516 38.3162 25.4217 37.2883 27.2552C37.1144 26.8885 36.9987 26.5106 36.9987 26.1172C36.9987 23.396 41.4091 21.1915 46.8529 21.1915C52.2975 21.1915 56.7079 23.3967 56.7079 26.1172C56.7072 26.5253 56.5803 26.9159 56.3938 27.2938ZM54.3968 9.50087C59.8407 9.50087 64.2518 11.7082 64.2518 14.4294C64.2518 15.5779 63.4314 16.6241 62.1104 17.4613C58.7083 15.3823 54.3365 13.6413 50.4689 12.7992C50.4619 12.7971 50.4556 12.795 50.4471 12.7929C50.4408 12.7971 50.4429 12.8034 50.4366 12.8062C47.6684 13.3468 45.5922 14.4084 44.9324 15.7006C44.8294 15.5113 44.7452 15.3185 44.6814 15.1208C44.6534 15.0219 44.6365 14.9209 44.619 14.8178C44.5931 14.6867 44.5566 14.5598 44.5566 14.4245C44.5566 14.4203 44.5454 14.4098 44.5454 14.4056C44.5741 11.6955 48.9705 9.50087 54.3968 9.50087ZM34.7157 2.47443C40.1575 2.47443 44.5685 4.67751 44.5685 7.40016C44.5685 8.97008 43.0757 10.3507 40.7906 11.2531C38.9031 11.096 36.9784 10.9951 35.0011 10.9951C32.8646 10.9951 30.7982 11.1241 28.769 11.3064C26.4068 10.4068 24.8586 8.99953 24.8586 7.40016C24.8586 4.67751 29.2718 2.47443 34.7157 2.47443ZM15.0317 9.50297C20.4756 9.50297 24.8839 11.7089 24.8839 14.4294C24.8839 14.8375 24.7569 15.228 24.5704 15.606C23.8721 14.3992 21.9438 13.4001 19.367 12.8595C19.367 12.8532 19.3691 12.849 19.3691 12.8426C19.3558 12.8469 19.3474 12.849 19.3348 12.8539C14.8788 14.1959 11.692 14.9966 7.61191 17.6422C6.11491 16.7769 5.17675 15.6649 5.17675 14.4301C5.17745 11.7082 9.58851 9.50297 15.0317 9.50297Z" fill="#FFB400"/>
<path d="M35.0011 37.5757C18.0173 37.5757 4.01561 31.2757 1.7354 23.0979C0.627548 24.799 0 26.6094 0 28.4969C0 38.1598 15.6698 45.9961 35.0011 45.9961C54.3302 45.9961 70 38.1598 70 28.4969C70 26.6094 69.3725 24.799 68.2646 23.0958C65.9886 31.2736 51.9834 37.5757 35.0011 37.5757Z" fill="#FFB400"/>
</svg>
