<svg width="24" height="24" viewBox="0 0 24 24" fill="none" xmlns="http://www.w3.org/2000/svg">
<path d="M11.641 12.828H6C5.73478 12.828 5.48043 12.7226 5.29289 12.5351C5.10536 12.3476 5 12.0932 5 11.828C5 11.5628 5.10536 11.3084 5.29289 11.1209C5.48043 10.9334 5.73478 10.828 6 10.828H11.641L10.521 9.708C10.3387 9.51953 10.2377 9.26699 10.2398 9.00479C10.2419 8.74259 10.3469 8.4917 10.5322 8.30616C10.7175 8.12062 10.9682 8.01528 11.2304 8.01281C11.4926 8.01035 11.7453 8.11097 11.934 8.293L14.763 11.12C14.8563 11.2127 14.9304 11.3229 14.981 11.4443C15.0315 11.5657 15.0575 11.696 15.0575 11.8275C15.0575 11.959 15.0315 12.0893 14.981 12.2107C14.9304 12.3321 14.8563 12.4423 14.763 12.535L11.934 15.363C11.7447 15.5408 11.4936 15.6379 11.2339 15.6339C10.9742 15.6299 10.7263 15.525 10.5426 15.3414C10.3589 15.1578 10.2538 14.91 10.2496 14.6503C10.2454 14.3906 10.3423 14.1395 10.52 13.95L11.641 12.828ZM18 3C18.2652 3 18.5196 3.10536 18.7071 3.29289C18.8946 3.48043 19 3.73478 19 4V20C19 20.2652 18.8946 20.5196 18.7071 20.7071C18.5196 20.8946 18.2652 21 18 21C17.7348 21 17.4804 20.8946 17.2929 20.7071C17.1054 20.5196 17 20.2652 17 20V4C17 3.73478 17.1054 3.48043 17.2929 3.29289C17.4804 3.10536 17.7348 3 18 3V3Z" fill="#3E3E3E"/>
</svg>
