<svg width="24" height="24" viewBox="0 0 24 24" fill="none" xmlns="http://www.w3.org/2000/svg">
<path d="M12 20C12.2652 20 12.5196 19.8947 12.7071 19.7071C12.8947 19.5196 13 19.2652 13 19C13 18.7348 12.8947 18.4805 12.7071 18.2929C12.5196 18.1054 12.2652 18 12 18C11.7348 18 11.4805 18.1054 11.2929 18.2929C11.1054 18.4805 11 18.7348 11 19C11 19.2652 11.1054 19.5196 11.2929 19.7071C11.4805 19.8947 11.7348 20 12 20ZM13.033 16.183C13.6962 16.4266 14.2521 16.8962 14.6031 17.5094C14.954 18.1225 15.0773 18.8398 14.9514 19.5349C14.8255 20.23 14.4584 20.8585 13.9148 21.3096C13.3711 21.7607 12.6857 22.0055 11.9793 22.001C11.2729 21.9965 10.5907 21.7429 10.0528 21.2849C9.51495 20.8269 9.15592 20.1938 9.03892 19.4971C8.92192 18.8004 9.05445 18.0848 9.41317 17.4762C9.7719 16.8676 10.3338 16.4051 11 16.17V15.123C11 15.049 11.003 14.975 11.008 14.902C10.9781 14.7701 10.9217 14.6457 10.8423 14.5362C10.7629 14.4267 10.6621 14.3344 10.546 14.265L7.46003 12.42C7.01479 12.1537 6.64622 11.7765 6.39033 11.3251C6.13443 10.8738 5.99995 10.3638 6.00003 9.84502V7.82902C5.33254 7.59312 4.76994 7.12883 4.41167 6.51822C4.0534 5.90761 3.92254 5.19 4.04222 4.49223C4.16189 3.79447 4.5244 3.16148 5.06566 2.70515C5.60692 2.24882 6.29208 1.99854 7.00003 1.99854C7.70798 1.99854 8.39314 2.24882 8.9344 2.70515C9.47566 3.16148 9.83817 3.79447 9.95784 4.49223C10.0775 5.19 9.94666 5.90761 9.58839 6.51822C9.23012 7.12883 8.66752 7.59312 8.00003 7.82902V9.84502C8.0001 10.0179 8.045 10.1879 8.13036 10.3383C8.21571 10.4886 8.3386 10.6143 8.48703 10.703L11.573 12.549C11.7303 12.6433 11.8786 12.7517 12.016 12.873C12.1538 12.7517 12.3024 12.6432 12.46 12.549L15.546 10.703C15.6945 10.6143 15.8173 10.4886 15.9027 10.3383C15.9881 10.1879 16.033 10.0179 16.033 9.84502V7.84102C15.3607 7.61144 14.7916 7.15076 14.427 6.54097C14.0624 5.93117 13.926 5.2118 14.0421 4.51087C14.1581 3.80994 14.5191 3.17291 15.0607 2.71314C15.6024 2.25336 16.2896 2.00067 17 2.00002C17.7049 1.99973 18.3874 2.24766 18.9278 2.70031C19.4681 3.15297 19.8318 3.78144 19.9551 4.47548C20.0783 5.16952 19.9532 5.88479 19.6018 6.49582C19.2503 7.10684 18.6949 7.5746 18.033 7.81702V9.84502C18.0331 10.3638 17.8986 10.8738 17.6427 11.3251C17.3868 11.7765 17.0183 12.1537 16.573 12.42L13.487 14.266C13.3709 14.3354 13.2701 14.4277 13.1907 14.5372C13.1113 14.6467 13.055 14.7711 13.025 14.903C13.03 14.976 13.033 15.05 13.033 15.123V16.183V16.183ZM7.00003 6.00002C7.26525 6.00002 7.5196 5.89467 7.70714 5.70713C7.89467 5.51959 8.00003 5.26524 8.00003 5.00002C8.00003 4.73481 7.89467 4.48045 7.70714 4.29292C7.5196 4.10538 7.26525 4.00002 7.00003 4.00002C6.73481 4.00002 6.48046 4.10538 6.29292 4.29292C6.10539 4.48045 6.00003 4.73481 6.00003 5.00002C6.00003 5.26524 6.10539 5.51959 6.29292 5.70713C6.48046 5.89467 6.73481 6.00002 7.00003 6.00002V6.00002ZM17 6.00002C17.2652 6.00002 17.5196 5.89467 17.7071 5.70713C17.8947 5.51959 18 5.26524 18 5.00002C18 4.73481 17.8947 4.48045 17.7071 4.29292C17.5196 4.10538 17.2652 4.00002 17 4.00002C16.7348 4.00002 16.4805 4.10538 16.2929 4.29292C16.1054 4.48045 16 4.73481 16 5.00002C16 5.26524 16.1054 5.51959 16.2929 5.70713C16.4805 5.89467 16.7348 6.00002 17 6.00002V6.00002Z" fill="#3E3E3E"/>
</svg>
