<svg width="24" height="24" viewBox="0 0 24 24" fill="none" xmlns="http://www.w3.org/2000/svg">
<path d="M13.3138 11.9001L16.8488 8.36406C16.9443 8.27182 17.0205 8.16147 17.0729 8.03947C17.1253 7.91746 17.1529 7.78624 17.1541 7.65346C17.1552 7.52069 17.1299 7.38901 17.0796 7.26611C17.0294 7.14321 16.9551 7.03156 16.8612 6.93767C16.7673 6.84378 16.6557 6.76952 16.5328 6.71924C16.4099 6.66896 16.2782 6.64366 16.1454 6.64481C16.0126 6.64597 15.8814 6.67355 15.7594 6.72596C15.6374 6.77837 15.5271 6.85455 15.4348 6.95006L11.8988 10.4851L8.36382 6.95006C8.27157 6.85455 8.16123 6.77837 8.03922 6.72596C7.91722 6.67355 7.786 6.64597 7.65322 6.64481C7.52044 6.64366 7.38876 6.66896 7.26587 6.71924C7.14297 6.76952 7.03132 6.84378 6.93742 6.93767C6.84353 7.03156 6.76928 7.14321 6.719 7.26611C6.66872 7.38901 6.64342 7.52069 6.64457 7.65346C6.64572 7.78624 6.67331 7.91746 6.72572 8.03947C6.77813 8.16147 6.85431 8.27182 6.94982 8.36406L10.4848 11.8991L6.94982 15.4351C6.85431 15.5273 6.77813 15.6377 6.72572 15.7597C6.67331 15.8817 6.64572 16.0129 6.64457 16.1457C6.64342 16.2784 6.66872 16.4101 6.719 16.533C6.76928 16.6559 6.84353 16.7676 6.93742 16.8615C7.03132 16.9554 7.14297 17.0296 7.26587 17.0799C7.38876 17.1302 7.52044 17.1555 7.65322 17.1543C7.786 17.1532 7.91722 17.1256 8.03922 17.0732C8.16123 17.0208 8.27157 16.9446 8.36382 16.8491L11.8988 13.3141L15.4348 16.8491C15.5271 16.9446 15.6374 17.0208 15.7594 17.0732C15.8814 17.1256 16.0126 17.1532 16.1454 17.1543C16.2782 17.1555 16.4099 17.1302 16.5328 17.0799C16.6557 17.0296 16.7673 16.9554 16.8612 16.8615C16.9551 16.7676 17.0294 16.6559 17.0796 16.533C17.1299 16.4101 17.1552 16.2784 17.1541 16.1457C17.1529 16.0129 17.1253 15.8817 17.0729 15.7597C17.0205 15.6377 16.9443 15.5273 16.8488 15.4351L13.3138 11.8991V11.9001Z" fill="#383838"/>
</svg>
