<svg width="24" height="24" viewBox="0 0 24 24" fill="none" xmlns="http://www.w3.org/2000/svg">
<path d="M10.164 13.107L11.981 14.156L13.851 13.076V11.01L11.96 9.92L10.164 11.042V13.107ZM8.164 11.952V4.978C6.30631 5.99492 4.92626 7.70533 4.325 9.736L8.165 11.952H8.164ZM4.001 11.858L4 12C3.99705 14.0462 4.78118 16.0151 6.19 17.499L9.98 15.31L4.001 11.858V11.858ZM10.164 8.684L15.972 5.054C14.763 4.3612 13.3934 3.99776 12 4C11.368 4 10.754 4.073 10.164 4.212V8.684ZM17.667 6.354L13.881 8.719L19.996 12.25C20.0316 11.1601 19.8433 10.0744 19.4427 9.06011C19.0421 8.04582 18.4378 7.12447 17.667 6.353V6.354ZM15.851 12.166V19.014C17.6716 18.0122 19.0325 16.3431 19.647 14.358L15.851 12.166ZM7.858 18.846C9.10673 19.6032 10.5396 20.0024 12 20C12.637 20 13.257 19.926 13.85 19.785V15.385L7.858 18.845V18.846ZM12 22C6.477 22 2 17.523 2 12C2 6.477 6.477 2 12 2C17.523 2 22 6.477 22 12C22 17.523 17.523 22 12 22Z" fill="#3E3E3E"/>
</svg>
