<svg width="24" height="24" viewBox="0 0 24 24" fill="none" xmlns="http://www.w3.org/2000/svg">
<path d="M8.41358 10.828H14.0556C14.1869 10.828 14.3169 10.8539 14.4383 10.9041C14.5596 10.9544 14.6698 11.028 14.7627 11.1209C14.8556 11.2138 14.9292 11.324 14.9795 11.4453C15.0297 11.5666 15.0556 11.6967 15.0556 11.828C15.0556 11.9593 15.0297 12.0894 14.9795 12.2107C14.9292 12.332 14.8556 12.4422 14.7627 12.5351C14.6698 12.628 14.5596 12.7016 14.4383 12.7519C14.3169 12.8021 14.1869 12.828 14.0556 12.828H8.41358L9.53558 13.95C9.72309 14.1376 9.82838 14.3921 9.82829 14.6574C9.82819 14.9226 9.72273 15.177 9.53509 15.3645C9.34744 15.552 9.093 15.6573 8.82773 15.6572C8.56246 15.6571 8.30809 15.5516 8.12058 15.364L5.29258 12.536C5.19925 12.4433 5.12517 12.3331 5.07462 12.2117C5.02407 12.0903 4.99805 11.96 4.99805 11.8285C4.99805 11.697 5.02407 11.5667 5.07462 11.4453C5.12517 11.3239 5.19925 11.2137 5.29258 11.121L8.11958 8.293C8.30709 8.10536 8.56146 7.99989 8.82673 7.9998C9.092 7.9997 9.34644 8.10499 9.53409 8.2925C9.72173 8.48001 9.82719 8.73438 9.82729 8.99965C9.82738 9.26492 9.72209 9.51936 9.53458 9.707L8.41358 10.828ZM17.9996 3C18.2648 3 18.5192 3.10536 18.7067 3.29289C18.8942 3.48043 18.9996 3.73478 18.9996 4V20C18.9996 20.2652 18.8942 20.5196 18.7067 20.7071C18.5192 20.8946 18.2648 21 17.9996 21C17.7344 21 17.48 20.8946 17.2925 20.7071C17.1049 20.5196 16.9996 20.2652 16.9996 20V4C16.9996 3.73478 17.1049 3.48043 17.2925 3.29289C17.48 3.10536 17.7344 3 17.9996 3V3Z" fill="#3E3E3E"/>
</svg>
